<svg width="204" height="84" viewBox="0 0 204 84" fill="none" xmlns="http://www.w3.org/2000/svg">
<path d="M56.3136 45.9025C53.0949 55.6179 41.4173 59.193 33.6499 52.6433C26.6539 46.5575 27.1061 35.423 34.7937 30.1832C36.8154 28.846 39.1828 28.0819 41.5503 28C41.9493 28 42.2951 28.3275 42.3217 28.7368C42.3217 29.1462 42.0291 29.4737 41.6567 29.5283C36.5494 29.9103 32.1337 34.1404 31.4154 39.2982C31.0164 41.9454 31.5484 44.7563 32.9583 47.0214L33.3573 47.6491C33.5701 47.9493 33.8361 48.2495 34.0489 48.5224C34.2085 48.7135 34.6341 49.1228 34.8203 49.3138C35.1927 49.614 35.5651 49.9688 35.9641 50.2417L36.576 50.6511L37.2144 51.0058C41.0981 53.0526 45.9394 52.3431 49.1048 49.2593C50.4615 47.9493 51.4191 46.2846 51.8979 44.4834C52.2437 43.2281 53.5205 42.4912 54.7442 42.8187C56.0476 43.2008 56.7658 44.6199 56.3136 45.9025Z" fill="white"/>
<path d="M64.4805 45.575C62.6184 56.382 52.723 64.5964 42.0296 64.1052C31.5223 63.8869 22.2653 55.2631 21.1215 44.5652C19.0732 27.727 35.9912 14.8186 51.0206 21.9687C54.3722 23.5789 57.3249 26.0623 59.4263 29.2007C60.118 30.2377 60.7298 31.3294 61.2618 32.4756C61.4214 32.8576 61.2618 33.2943 60.8894 33.4853C60.517 33.649 60.0914 33.4853 59.9318 33.1305C59.4263 32.0935 58.8411 31.0837 58.1495 30.1559C46.2325 14.0272 21.6535 24.0155 24.154 44.1286C25.351 53.1344 33.278 60.2299 42.136 60.1754C48.5467 60.2845 54.7978 56.5457 57.8835 50.8147C58.9209 48.9317 59.6125 46.8576 59.9584 44.729C60.5968 41.6179 64.9593 42.4366 64.4805 45.575Z" fill="white"/>
<path d="M71.5294 45.4385C68.7895 65.4697 47.9613 77.0681 30.1655 68.2533C16.7588 61.7855 10.4012 44.7017 16.2268 30.7289C21.6267 16.7835 37.6669 9.30595 51.4194 14.3547C61.4744 17.766 69.0556 27.536 70.093 38.3157C70.1728 39.3527 68.7097 39.5165 68.5767 38.5067C67.4063 28.382 60.2242 19.4307 50.7543 16.4015C38.1191 12.0077 23.5685 19.0213 18.8602 31.8206C13.8859 44.3196 19.7114 59.4112 31.7083 64.9239C40.3801 69.1266 51.0204 67.7075 58.3355 61.3215C61.9532 58.2377 64.6399 54.0896 66.0497 49.5048C66.5019 47.9765 66.8477 46.3937 67.0339 44.7835C67.1935 43.5009 68.3373 42.6003 69.561 42.764C70.8378 42.9551 71.7156 44.1559 71.5294 45.4385Z" fill="white"/>
<path d="M103.37 39.7075V51.5516H100.71L100.471 47.7855C98.9809 50.3235 96.4272 51.9337 92.8095 51.9337C86.452 51.9337 81.7969 46.9395 81.7969 40.8537C81.7969 34.0857 86.7712 29.3372 92.9691 29.3372C97.571 29.3372 101.934 31.9298 103.184 37.1422H99.5927C98.5021 33.7855 95.5228 32.5574 93.0223 32.5574C88.5534 32.5574 85.2017 35.9142 85.2017 40.881C85.2017 45.0837 88.2608 48.7134 92.8095 48.7134C96.5602 48.7134 98.9809 46.2845 99.7257 42.9278H92.5701V39.7075H103.37Z" fill="white"/>
<path d="M122.07 45.0018H110.525C110.844 47.2669 112.254 49.0135 114.994 49.0135C116.431 49.0135 117.521 48.5769 118.133 47.5944H121.698C120.766 50.3235 118.16 51.9336 114.968 51.9336C110.339 51.9336 107.2 48.495 107.2 44.0194C107.2 39.571 110.286 36.1051 114.781 36.1051C119.676 36.0778 122.708 39.8985 122.07 45.0018ZM110.605 42.6821H118.851C118.665 40.1987 117.096 38.8888 114.808 38.8888C112.387 38.916 110.977 40.5808 110.605 42.6821Z" fill="white"/>
<path d="M140.026 43.1461V51.5516H136.78V43.3371C136.78 40.5808 135.344 39.1071 132.977 39.1071C131.567 39.1071 130.024 39.8985 128.88 41.3722V51.5516H125.635V36.4599H128.88V37.7972C130.157 36.6783 131.753 36.0779 133.642 36.0779C137.419 36.0779 140.026 38.7796 140.026 43.1461Z" fill="white"/>
<path d="M158.247 45.0018H146.702C147.021 47.2669 148.431 49.0135 151.171 49.0135C152.607 49.0135 153.698 48.5769 154.31 47.5944H157.874C156.943 50.3235 154.336 51.9336 151.144 51.9336C146.516 51.9336 143.377 48.495 143.377 44.0194C143.377 39.571 146.463 36.1051 150.958 36.1051C155.853 36.0778 158.885 39.8985 158.247 45.0018ZM146.782 42.6821H155.028C154.842 40.1987 153.272 38.8888 150.985 38.8888C148.564 38.916 147.154 40.5808 146.782 42.6821Z" fill="white"/>
<path d="M170.484 36.1597V39.2981C168.143 39.4072 166.36 40.2805 165.03 42.0544V51.5515H161.785V36.4599H165.03V38.5066C166.387 37.0057 168.223 36.1597 170.484 36.1597Z" fill="white"/>
<path d="M187.694 36.46V51.5516H184.475V50.3508C183.225 51.3333 181.629 51.9337 179.74 51.9337C175.617 51.9337 172.292 48.4132 172.292 44.0195C172.292 39.6257 175.617 36.1052 179.74 36.1052C181.629 36.1052 183.198 36.6783 184.475 37.6881V36.4873H187.694V36.46ZM184.448 46.7485V41.2904C183.358 39.6803 181.815 39.1072 180.192 39.1072C177.506 39.1072 175.537 41.3177 175.537 44.0195C175.537 46.7212 177.506 48.9317 180.192 48.9317C181.842 48.9317 183.358 48.3313 184.448 46.7485Z" fill="white"/>
</svg>
