<svg width="161" height="66" viewBox="0 0 161 66" fill="none" xmlns="http://www.w3.org/2000/svg">
<path d="M44.4435 36.0663C41.9033 43.6998 32.6871 46.5088 26.5569 41.3626C21.0356 36.5809 21.3925 27.8324 27.4597 23.7154C29.0552 22.6647 30.9236 22.0643 32.792 22C33.1069 22 33.3799 22.2573 33.4008 22.5789C33.4008 22.9006 33.1699 23.1579 32.876 23.2008C28.8452 23.501 25.3603 26.8246 24.7935 30.8772C24.4786 32.9571 24.8984 35.1657 26.0111 36.9454L26.326 37.4386C26.4939 37.6745 26.7039 37.9103 26.8718 38.1248C26.9978 38.2749 27.3337 38.5965 27.4806 38.7466C27.7746 38.9825 28.0685 39.2612 28.3834 39.4756L28.8662 39.7973L29.3701 40.076C32.4351 41.6842 36.256 41.1267 38.7542 38.7037C39.8249 37.6745 40.5807 36.3665 40.9585 34.9513C41.2315 33.9649 42.2392 33.386 43.2049 33.6433C44.2335 33.9435 44.8004 35.0585 44.4435 36.0663Z" fill="black"/>
<path d="M50.8885 35.809C49.419 44.3002 41.6093 50.7544 33.1699 50.3684C24.8774 50.1969 17.5716 43.4211 16.6689 35.0156C15.0524 21.7856 28.4044 11.6433 40.2657 17.2612C42.9109 18.5263 45.2412 20.4776 46.8997 22.9435C47.4456 23.7583 47.9284 24.616 48.3483 25.5166C48.4742 25.8168 48.3483 26.1598 48.0544 26.3099C47.7605 26.4386 47.4246 26.3099 47.2986 26.0312C46.8997 25.2164 46.4379 24.423 45.892 23.694C36.4869 11.0214 17.0888 18.8694 19.0622 34.6725C20.0069 41.7485 26.263 47.3236 33.2539 47.2807C38.3133 47.3665 43.2468 44.4289 45.6821 39.9259C46.5008 38.4464 47.0467 36.8168 47.3196 35.1443C47.8234 32.6998 51.2664 33.3431 50.8885 35.809Z" fill="black"/>
<path d="M56.4519 35.7018C54.2895 51.4405 37.8515 60.5536 23.8068 53.6277C13.226 48.5458 8.20854 35.1228 12.8061 24.1443C17.0678 13.1871 29.727 7.31189 40.5807 11.2788C48.5163 13.9591 54.4994 21.6355 55.3182 30.1053C55.3812 30.9201 54.2265 31.0487 54.1216 30.2554C53.1978 22.3002 47.5296 15.2671 40.0558 12.8869C30.0839 9.4347 18.6004 14.9454 14.8845 25.002C10.9587 34.8226 15.5563 46.6803 25.0244 51.0117C31.8683 54.3138 40.2658 53.1988 46.039 48.1813C48.8942 45.7583 51.0145 42.499 52.1272 38.8967C52.4841 37.6959 52.757 36.4522 52.9039 35.1871C53.0299 34.1793 53.9326 33.4717 54.8983 33.6004C55.906 33.7505 56.5988 34.694 56.4519 35.7018Z" fill="black"/>
<path d="M81.5812 31.1988V40.5049H79.4819L79.2929 37.5458C78.1173 39.54 76.1019 40.8051 73.2468 40.8051C68.2293 40.8051 64.5554 36.8811 64.5554 32.0994C64.5554 26.7817 68.4812 23.0507 73.3727 23.0507C77.0046 23.0507 80.4476 25.0877 81.4343 29.1832H78.6001C77.7394 26.5458 75.3881 25.5809 73.4147 25.5809C69.8878 25.5809 67.2426 28.2183 67.2426 32.1209C67.2426 35.423 69.6569 38.2749 73.2468 38.2749C76.2069 38.2749 78.1173 36.3665 78.7051 33.7291H73.0578V31.1988H81.5812Z" fill="black"/>
<path d="M96.3398 35.3587H87.2286C87.4805 37.1384 88.5932 38.5107 90.7555 38.5107C91.8892 38.5107 92.7499 38.1676 93.2327 37.3957H96.0459C95.3111 39.54 93.2537 40.8051 90.7345 40.8051C87.0816 40.8051 84.6044 38.1033 84.6044 34.5867C84.6044 31.0916 87.0396 28.3684 90.5875 28.3684C94.4504 28.347 96.8436 31.3489 96.3398 35.3587ZM87.2915 33.5361H93.7996C93.6526 31.5848 92.414 30.5556 90.6085 30.5556C88.6981 30.577 87.5855 31.885 87.2915 33.5361Z" fill="black"/>
<path d="M110.51 33.9006V40.5049H107.949V34.0507C107.949 31.885 106.816 30.7271 104.947 30.7271C103.834 30.7271 102.617 31.3489 101.714 32.5068V40.5049H99.1528V28.6472H101.714V29.6979C102.722 28.8187 103.981 28.347 105.472 28.347C108.453 28.347 110.51 30.4698 110.51 33.9006Z" fill="black"/>
<path d="M124.891 35.3587H115.78C116.032 37.1384 117.144 38.5107 119.307 38.5107C120.44 38.5107 121.301 38.1676 121.784 37.3957H124.597C123.862 39.54 121.805 40.8051 119.286 40.8051C115.633 40.8051 113.156 38.1033 113.156 34.5867C113.156 31.0916 115.591 28.3684 119.139 28.3684C123.002 28.347 125.395 31.3489 124.891 35.3587ZM115.843 33.5361H122.351C122.204 31.5848 120.965 30.5556 119.16 30.5556C117.249 30.577 116.137 31.885 115.843 33.5361Z" fill="black"/>
<path d="M134.548 28.4113V30.8772C132.701 30.963 131.294 31.6491 130.244 33.0429V40.5049H127.683V28.6472H130.244V30.2554C131.315 29.076 132.764 28.4113 134.548 28.4113Z" fill="black"/>
<path d="M148.131 28.6472V40.5049H145.591V39.5614C144.604 40.3333 143.344 40.8051 141.854 40.8051C138.6 40.8051 135.976 38.039 135.976 34.5867C135.976 31.1345 138.6 28.3684 141.854 28.3684C143.344 28.3684 144.583 28.8187 145.591 29.6121V28.6686H148.131V28.6472ZM145.57 36.731V32.4425C144.709 31.1774 143.491 30.7271 142.211 30.7271C140.09 30.7271 138.537 32.4639 138.537 34.5867C138.537 36.7096 140.09 38.4464 142.211 38.4464C143.512 38.4464 144.709 37.9747 145.57 36.731Z" fill="black"/>
</svg>
