<svg width="161" height="66" viewBox="0 0 161 66" fill="none" xmlns="http://www.w3.org/2000/svg">
<path d="M44.4441 36.0663C41.9039 43.6998 32.6877 46.5088 26.5575 41.3626C21.0362 36.5809 21.3931 27.8324 27.4603 23.7154C29.0558 22.6647 30.9242 22.0643 32.7926 22C33.1075 22 33.3805 22.2573 33.4015 22.5789C33.4015 22.9006 33.1705 23.1579 32.8766 23.2008C28.8458 23.501 25.3609 26.8246 24.7941 30.8772C24.4792 32.9571 24.899 35.1657 26.0117 36.9454L26.3266 37.4386C26.4946 37.6745 26.7045 37.9103 26.8724 38.1248C26.9984 38.2749 27.3343 38.5965 27.4813 38.7466C27.7752 38.9825 28.0691 39.2612 28.384 39.4756L28.8668 39.7973L29.3707 40.076C32.4357 41.6842 36.2566 41.1267 38.7548 38.7037C39.8255 37.6745 40.5813 36.3665 40.9592 34.9513C41.2321 33.9649 42.2398 33.386 43.2055 33.6433C44.2342 33.9435 44.801 35.0585 44.4441 36.0663Z" fill="white"/>
<path d="M50.8884 35.809C49.4188 44.3002 41.6092 50.7544 33.1698 50.3684C24.8773 50.1969 17.5715 43.4211 16.6688 35.0156C15.0523 21.7856 28.4042 11.6433 40.2656 17.2612C42.9108 18.5263 45.2411 20.4776 46.8996 22.9435C47.4454 23.7583 47.9283 24.616 48.3482 25.5166C48.4741 25.8168 48.3482 26.1598 48.0542 26.3099C47.7603 26.4386 47.4244 26.3099 47.2985 26.0312C46.8996 25.2164 46.4377 24.423 45.8919 23.694C36.4868 11.0214 17.0887 18.8694 19.0621 34.6725C20.0068 41.7485 26.2629 47.3236 33.2538 47.2807C38.3132 47.3665 43.2467 44.4289 45.682 39.9259C46.5007 38.4464 47.0466 36.8168 47.3195 35.1443C47.8233 32.6998 51.2663 33.3431 50.8884 35.809Z" fill="white"/>
<path d="M56.4522 35.7018C54.2899 51.4405 37.8519 60.5536 23.8072 53.6277C13.2264 48.5458 8.2089 35.1228 12.8065 24.1443C17.0682 13.1871 29.7274 7.31189 40.5811 11.2788C48.5166 13.9591 54.4998 21.6355 55.3186 30.1053C55.3815 30.9201 54.2269 31.0487 54.1219 30.2554C53.1982 22.3002 47.5299 15.2671 40.0562 12.8869C30.0842 9.4347 18.6007 14.9454 14.8849 25.002C10.9591 34.8226 15.5567 46.6803 25.0248 51.0117C31.8687 54.3138 40.2661 53.1988 46.0394 48.1813C48.8945 45.7583 51.0149 42.499 52.1275 38.8967C52.4844 37.6959 52.7573 36.4522 52.9043 35.1871C53.0303 34.1793 53.933 33.4717 54.8987 33.6004C55.9064 33.7505 56.5992 34.694 56.4522 35.7018Z" fill="white"/>
<path d="M81.5825 31.1988V40.5049H79.4831L79.2942 37.5458C78.1185 39.54 76.1031 40.8051 73.248 40.8051C68.2305 40.8051 64.5566 36.8811 64.5566 32.0994C64.5566 26.7817 68.4824 23.0507 73.374 23.0507C77.0058 23.0507 80.4488 25.0877 81.4355 29.1832H78.6014C77.7406 26.5458 75.3893 25.5809 73.4159 25.5809C69.889 25.5809 67.2438 28.2183 67.2438 32.1209C67.2438 35.423 69.6581 38.2749 73.248 38.2749C76.2081 38.2749 78.1185 36.3665 78.7063 33.7291H73.0591V31.1988H81.5825Z" fill="white"/>
<path d="M96.3409 35.3587H87.2297C87.4816 37.1384 88.5943 38.5107 90.7566 38.5107C91.8902 38.5107 92.751 38.1676 93.2338 37.3957H96.047C95.3122 39.54 93.2548 40.8051 90.7356 40.8051C87.0827 40.8051 84.6055 38.1033 84.6055 34.5867C84.6055 31.0916 87.0407 28.3684 90.5886 28.3684C94.4515 28.347 96.8447 31.3489 96.3409 35.3587ZM87.2926 33.5361H93.8007C93.6537 31.5848 92.4151 30.5556 90.6096 30.5556C88.6992 30.577 87.5866 31.885 87.2926 33.5361Z" fill="white"/>
<path d="M110.512 33.9006V40.5049H107.951V34.0507C107.951 31.885 106.817 30.7271 104.949 30.7271C103.836 30.7271 102.618 31.3489 101.716 32.5068V40.5049H99.1543V28.6472H101.716V29.6979C102.723 28.8187 103.983 28.347 105.473 28.347C108.454 28.347 110.512 30.4698 110.512 33.9006Z" fill="white"/>
<path d="M124.892 35.3587H115.78C116.032 37.1384 117.145 38.5107 119.307 38.5107C120.441 38.5107 121.302 38.1676 121.785 37.3957H124.598C123.863 39.54 121.806 40.8051 119.286 40.8051C115.633 40.8051 113.156 38.1033 113.156 34.5867C113.156 31.0916 115.592 28.3684 119.139 28.3684C123.002 28.347 125.396 31.3489 124.892 35.3587ZM115.843 33.5361H122.351C122.204 31.5848 120.966 30.5556 119.16 30.5556C117.25 30.577 116.137 31.885 115.843 33.5361Z" fill="white"/>
<path d="M134.549 28.4113V30.8772C132.701 30.963 131.294 31.6491 130.245 33.0429V40.5049H127.684V28.6472H130.245V30.2554C131.315 29.076 132.764 28.4113 134.549 28.4113Z" fill="white"/>
<path d="M148.132 28.6472V40.5049H145.592V39.5614C144.605 40.3333 143.345 40.8051 141.855 40.8051C138.601 40.8051 135.977 38.039 135.977 34.5867C135.977 31.1345 138.601 28.3684 141.855 28.3684C143.345 28.3684 144.584 28.8187 145.592 29.6121V28.6686H148.132V28.6472ZM145.571 36.731V32.4425C144.71 31.1774 143.492 30.7271 142.212 30.7271C140.091 30.7271 138.538 32.4639 138.538 34.5867C138.538 36.7096 140.091 38.4464 142.212 38.4464C143.513 38.4464 144.71 37.9747 145.571 36.731Z" fill="white"/>
</svg>
