<svg width="161" height="66" viewBox="0 0 161 66" fill="none" xmlns="http://www.w3.org/2000/svg">
<path d="M44.4441 36.0663C41.9039 43.6998 32.6877 46.5088 26.5575 41.3626C21.0362 36.5809 21.3931 27.8324 27.4603 23.7154C29.0558 22.6647 30.9242 22.0643 32.7926 22C33.1075 22 33.3805 22.2573 33.4015 22.5789C33.4015 22.9006 33.1705 23.1579 32.8766 23.2008C28.8458 23.501 25.3609 26.8246 24.7941 30.8772C24.4792 32.9571 24.899 35.1657 26.0117 36.9454L26.3266 37.4386C26.4946 37.6745 26.7045 37.9103 26.8724 38.1248C26.9984 38.2749 27.3343 38.5965 27.4813 38.7466C27.7752 38.9825 28.0691 39.2612 28.384 39.4756L28.8668 39.7973L29.3707 40.076C32.4357 41.6842 36.2566 41.1267 38.7548 38.7037C39.8255 37.6745 40.5813 36.3665 40.9592 34.9513C41.2321 33.9649 42.2398 33.386 43.2055 33.6433C44.2342 33.9435 44.801 35.0585 44.4441 36.0663Z" fill="black"/>
<path d="M50.8894 35.809C49.4198 44.3002 41.6102 50.7544 33.1708 50.3684C24.8783 50.1969 17.5725 43.4211 16.6698 35.0156C15.0533 21.7856 28.4052 11.6433 40.2666 17.2612C42.9118 18.5263 45.2421 20.4776 46.9006 22.9435C47.4464 23.7583 47.9293 24.616 48.3491 25.5166C48.4751 25.8168 48.3491 26.1598 48.0552 26.3099C47.7613 26.4386 47.4254 26.3099 47.2995 26.0312C46.9006 25.2164 46.4387 24.423 45.8929 23.694C36.4877 11.0214 17.0896 18.8694 19.063 34.6725C20.0078 41.7485 26.2639 47.3236 33.2547 47.2807C38.3142 47.3665 43.2477 44.4289 45.6829 39.9259C46.5017 38.4464 47.0475 36.8168 47.3204 35.1443C47.8243 32.6998 51.2672 33.3431 50.8894 35.809Z" fill="black"/>
<path d="M56.4522 35.7018C54.2899 51.4405 37.8519 60.5536 23.8072 53.6277C13.2264 48.5458 8.2089 35.1228 12.8065 24.1443C17.0682 13.1871 29.7274 7.31189 40.5811 11.2788C48.5166 13.9591 54.4998 21.6355 55.3186 30.1053C55.3815 30.9201 54.2269 31.0487 54.1219 30.2554C53.1982 22.3002 47.5299 15.2671 40.0562 12.8869C30.0842 9.4347 18.6007 14.9454 14.8849 25.002C10.9591 34.8226 15.5567 46.6803 25.0248 51.0117C31.8687 54.3138 40.2661 53.1988 46.0394 48.1813C48.8945 45.7583 51.0149 42.499 52.1275 38.8967C52.4844 37.6959 52.7573 36.4522 52.9043 35.1871C53.0303 34.1793 53.933 33.4717 54.8987 33.6004C55.9064 33.7505 56.5992 34.694 56.4522 35.7018Z" fill="black"/>
<path d="M81.5815 31.1988V40.5049H79.4821L79.2932 37.5458C78.1175 39.54 76.1021 40.8051 73.247 40.8051C68.2295 40.8051 64.5557 36.8811 64.5557 32.0994C64.5557 26.7817 68.4815 23.0507 73.373 23.0507C77.0049 23.0507 80.4478 25.0877 81.4345 29.1832H78.6004C77.7396 26.5458 75.3884 25.5809 73.415 25.5809C69.888 25.5809 67.2428 28.2183 67.2428 32.1209C67.2428 35.423 69.6571 38.2749 73.247 38.2749C76.2071 38.2749 78.1175 36.3665 78.7054 33.7291H73.0581V31.1988H81.5815Z" fill="black"/>
<path d="M96.3399 35.3587H87.2287C87.4806 37.1384 88.5933 38.5107 90.7556 38.5107C91.8893 38.5107 92.75 38.1676 93.2329 37.3957H96.046C95.3112 39.54 93.2539 40.8051 90.7346 40.8051C87.0817 40.8051 84.6045 38.1033 84.6045 34.5867C84.6045 31.0916 87.0398 28.3684 90.5877 28.3684C94.4505 28.347 96.8438 31.3489 96.3399 35.3587ZM87.2917 33.5361H93.7997C93.6527 31.5848 92.4141 30.5556 90.6087 30.5556C88.6982 30.577 87.5856 31.885 87.2917 33.5361Z" fill="black"/>
<path d="M110.511 33.9006V40.5049H107.95V34.0507C107.95 31.885 106.816 30.7271 104.948 30.7271C103.835 30.7271 102.617 31.3489 101.715 32.5068V40.5049H99.1533V28.6472H101.715V29.6979C102.722 28.8187 103.982 28.347 105.472 28.347C108.453 28.347 110.511 30.4698 110.511 33.9006Z" fill="black"/>
<path d="M124.892 35.3587H115.78C116.032 37.1384 117.145 38.5107 119.307 38.5107C120.441 38.5107 121.302 38.1676 121.785 37.3957H124.598C123.863 39.54 121.806 40.8051 119.286 40.8051C115.633 40.8051 113.156 38.1033 113.156 34.5867C113.156 31.0916 115.592 28.3684 119.139 28.3684C123.002 28.347 125.396 31.3489 124.892 35.3587ZM115.843 33.5361H122.351C122.204 31.5848 120.966 30.5556 119.16 30.5556C117.25 30.577 116.137 31.885 115.843 33.5361Z" fill="black"/>
<path d="M134.549 28.4113V30.8772C132.701 30.963 131.294 31.6491 130.245 33.0429V40.5049H127.684V28.6472H130.245V30.2554C131.315 29.076 132.764 28.4113 134.549 28.4113Z" fill="black"/>
<path d="M148.131 28.6472V40.5049H145.591V39.5614C144.604 40.3333 143.344 40.8051 141.854 40.8051C138.6 40.8051 135.976 38.039 135.976 34.5867C135.976 31.1345 138.6 28.3684 141.854 28.3684C143.344 28.3684 144.583 28.8187 145.591 29.6121V28.6686H148.131V28.6472ZM145.57 36.731V32.4425C144.709 31.1774 143.491 30.7271 142.211 30.7271C140.09 30.7271 138.537 32.4639 138.537 34.5867C138.537 36.7096 140.09 38.4464 142.211 38.4464C143.512 38.4464 144.709 37.9747 145.57 36.731Z" fill="black"/>
</svg>
