<svg width="17" height="16" viewBox="0 0 17 16" fill="none" xmlns="http://www.w3.org/2000/svg">
<g clip-path="url(#clip0_349_2549)">
<path d="M0.532227 8C0.532227 9.475 0.957227 10.85 1.68223 12H14.3572C15.0822 10.85 15.5072 9.475 15.5072 8C15.5072 6.525 15.0822 5.15 14.3572 4H1.68223C0.957227 5.15 0.532227 6.525 0.532227 8Z" fill="#FFCE31"/>
<path d="M14.3826 4C13.0576 1.9 10.7076 0.5 8.03262 0.5C5.35762 0.5 3.00762 1.9 1.68262 4H14.3826ZM1.68262 12C3.00762 14.1 5.35762 15.5 8.03262 15.5C10.7076 15.5 13.0576 14.1 14.3826 12H1.68262Z" fill="#ED4C5C"/>
<path d="M2.33203 7.17578H3.13203V7.62578H2.33203V7.17578ZM2.33203 10.4758H3.15703V10.9008H2.33203V10.4758Z" fill="#C8B100"/>
<path d="M2.25684 9.77344C2.18184 9.82344 2.13184 9.87344 2.13184 9.89844C2.13184 9.92344 2.15684 9.94844 2.20684 9.97344C2.25684 9.99844 2.30684 10.0484 2.28184 10.0984C2.33184 10.0484 2.35684 9.99844 2.35684 9.94844C2.35684 9.87344 2.30684 9.79844 2.25684 9.77344Z" fill="#ED4C5C"/>
<path d="M2.45703 7.625H3.03203V10.475H2.45703V7.625Z" fill="white"/>
<path d="M3.63271 8.675C3.50771 8.625 3.28271 8.575 3.03271 8.575C2.95771 8.575 2.85771 8.575 2.75771 8.6C2.40771 8.65 2.13271 8.8 2.15771 8.9L2.03271 8.625C2.00771 8.5 2.30771 8.35 2.68271 8.275C2.80771 8.25 2.93271 8.25 3.03271 8.25C3.28271 8.25 3.50771 8.275 3.63271 8.325V8.675Z" fill="#ED4C5C"/>
<path d="M2.45762 9.05C2.30762 9.05 2.18262 9 2.18262 8.925C2.18262 8.875 2.23262 8.8 2.33262 8.75H2.48262L2.45762 9.05ZM3.03262 8.825C3.13262 8.85 3.20762 8.875 3.25762 8.9C3.28262 8.925 3.18262 9.025 3.03262 9.1V8.825Z" fill="#ED4C5C"/>
<path d="M2.08246 9.59844C2.05746 9.54844 2.23246 9.44844 2.45746 9.37344C2.55746 9.34844 2.63246 9.29844 2.75746 9.24844C3.05746 9.12344 3.30746 8.94844 3.25746 8.89844L3.30746 9.19844C3.33246 9.24844 3.13246 9.39844 2.83246 9.54844C2.73246 9.59844 2.55746 9.67344 2.45746 9.69844C2.28246 9.74844 2.13246 9.84844 2.13246 9.87344L2.08246 9.59844Z" fill="#ED4C5C"/>
<path d="M7.70762 7.17578H8.50762V7.62578H7.70762V7.17578ZM7.68262 10.4758H8.50762V10.9008H7.68262V10.4758Z" fill="#C8B100"/>
<path d="M8.58242 9.77344C8.65742 9.82344 8.70742 9.87344 8.70742 9.89844C8.70742 9.92344 8.68242 9.94844 8.63242 9.97344C8.58242 10.0234 8.53242 10.0984 8.55742 10.1234C8.50742 10.0734 8.48242 10.0234 8.48242 9.97344C8.48242 9.87344 8.53242 9.79844 8.58242 9.77344Z" fill="#ED4C5C"/>
<path d="M7.80762 7.625H8.38262V10.475H7.80762V7.625Z" fill="white"/>
<path d="M7.20703 8.675C7.33203 8.625 7.55703 8.575 7.80703 8.575C7.88203 8.575 7.98203 8.575 8.08203 8.6C8.43203 8.65 8.70703 8.8 8.68203 8.9L8.80703 8.6C8.83203 8.475 8.53203 8.325 8.15703 8.25H7.80703C7.55703 8.25 7.33203 8.275 7.20703 8.325V8.675Z" fill="#ED4C5C"/>
<path d="M8.38195 9.05C8.53195 9.05 8.65695 9 8.65695 8.925C8.65695 8.875 8.60695 8.8 8.50695 8.75H8.35695L8.38195 9.05ZM7.80695 8.825C7.70695 8.85 7.63195 8.875 7.58195 8.9C7.55695 8.925 7.65695 9.025 7.80695 9.1V8.825Z" fill="#ED4C5C"/>
<path d="M8.75742 9.59922C8.78242 9.54922 8.60742 9.44922 8.38242 9.37422C8.28242 9.34922 8.20742 9.29922 8.08242 9.24922C7.78242 9.12422 7.53242 8.94922 7.58242 8.89922L7.53242 9.19922C7.50742 9.24922 7.70742 9.39922 8.00742 9.54922C8.10742 9.59922 8.28242 9.67422 8.38242 9.69922C8.55742 9.74922 8.70742 9.87422 8.68242 9.89922L8.75742 9.59922ZM5.40742 5.57422C5.88242 5.57422 6.85742 5.67422 7.20742 6.02422C6.83242 6.92422 6.23242 6.54922 5.40742 6.54922C4.60742 6.54922 3.98242 6.92422 3.60742 6.02422C3.95742 5.67422 4.90742 5.57422 5.40742 5.57422Z" fill="#ED4C5C"/>
<path d="M6.63242 6.575C6.33242 6.4 5.88242 6.375 5.40742 6.375C4.93242 6.375 4.48242 6.425 4.18242 6.575L4.28242 7C4.55742 7.075 4.95742 7.125 5.40742 7.125C5.85742 7.125 6.23242 7.075 6.53242 7L6.63242 6.575ZM7.05742 5.5C6.95742 5.425 6.75742 5.35 6.58242 5.35C6.50742 5.35 6.43242 5.35 6.35742 5.375C6.35742 5.375 6.20742 5.175 5.85742 5.175C5.73242 5.175 5.63242 5.2 5.53242 5.25V5.225C5.50742 5.175 5.45742 5.125 5.40742 5.125C5.35742 5.125 5.28242 5.2 5.28242 5.25V5.275C5.18242 5.225 5.08242 5.2 4.95742 5.2C4.60742 5.2 4.45742 5.425 4.45742 5.4C4.38242 5.375 4.30742 5.375 4.23242 5.375C3.08242 5.375 3.65742 6.15 3.65742 6.15L3.78242 6C3.50742 5.65 3.75742 5.45 4.25742 5.45C4.33242 5.45 4.38242 5.45 4.43242 5.475C4.25742 5.725 4.58242 5.95 4.58242 5.95L4.65742 5.825C4.48242 5.7 4.45742 5.275 4.95742 5.275C5.08242 5.275 5.18242 5.3 5.28242 5.375C5.28242 5.4 5.25742 5.75 5.23242 5.8L5.43242 5.975L5.63242 5.8C5.60742 5.725 5.58242 5.4 5.58242 5.375C5.65742 5.325 5.78242 5.275 5.90742 5.275C6.43242 5.275 6.43242 5.7 6.20742 5.825L6.28242 5.95C6.28242 5.95 6.55742 5.725 6.43242 5.475C6.48242 5.475 6.55742 5.45 6.60742 5.45C7.20742 5.45 7.23242 5.9 7.08242 6L7.18242 6.15C7.13242 6.15 7.40742 5.8 7.05742 5.5Z" fill="#C8B100"/>
<path d="M5.25684 5.025C5.25684 4.95 5.33184 4.875 5.40684 4.875C5.50684 4.875 5.55684 4.95 5.55684 5.025C5.55684 5.1 5.48184 5.175 5.40684 5.175C5.33184 5.175 5.25684 5.1 5.25684 5.025Z" fill="#005BBF"/>
<path d="M5.35684 4.60156V4.67656H5.28184V4.75156H5.35684V5.00156H5.25684V5.07656H5.55684L5.58184 5.02656L5.55684 5.00156H5.45684V4.75156H5.53184V4.67656H5.45684V4.60156H5.35684Z" fill="#C8B100"/>
<path d="M5.40684 7.07422C5.00684 7.07422 4.65684 7.02422 4.38184 6.94922C4.65684 6.87422 5.00684 6.82422 5.40684 6.82422C5.80684 6.82422 6.15684 6.87422 6.43184 6.94922C6.18184 7.02422 5.80684 7.07422 5.40684 7.07422Z" fill="#ED4C5C"/>
<path d="M5.43184 11.3984C4.95684 11.3984 4.50684 11.2734 4.10684 11.0984C3.80684 10.9484 3.63184 10.6734 3.63184 10.3484V9.14844H7.23184V10.3484C7.23184 10.6734 7.03184 10.9734 6.75684 11.0984C6.35684 11.2984 5.90684 11.3984 5.43184 11.3984ZM5.40684 7.14844H7.20684V9.14844H5.40684V7.14844Z" fill="white"/>
<path d="M5.43184 10.3484C5.43184 10.8234 5.03184 11.1984 4.53184 11.1984C4.03184 11.1984 3.63184 10.8234 3.63184 10.3484V9.14844H5.43184V10.3484Z" fill="#ED4C5C"/>
<path d="M4.00742 11.0516C4.05742 11.0766 4.13242 11.1266 4.23242 11.1516V9.10156H4.03242L4.00742 11.0516ZM3.60742 10.3266C3.60742 10.5766 3.70742 10.7766 3.80742 10.8766V9.10156H3.60742V10.3266Z" fill="#C8B100"/>
<path d="M4.40723 11.2016H4.60723V9.10156H4.40723V11.2016Z" fill="#C7B500"/>
<path d="M4.80762 11.1516C4.88262 11.1266 4.98262 11.0766 5.03262 11.0516V9.10156H4.83262L4.80762 11.1516Z" fill="#C8B100"/>
<path d="M3.60742 7.14844H5.40742V9.14844H3.60742V7.14844Z" fill="#ED4C5C"/>
<path d="M5.23242 10.875C5.33242 10.8 5.40742 10.625 5.43242 10.425V9.125H5.23242V10.875Z" fill="#C8B100"/>
<path d="M7.23184 9.15119V10.3512C7.23184 10.8262 6.83184 11.2012 6.33184 11.2012C5.83184 11.2012 5.43184 10.8262 5.43184 10.3512V9.15119H7.23184ZM6.58184 7.50119C6.65684 7.65119 6.65684 8.02619 6.43184 7.95119C6.48184 7.97619 6.50684 8.15119 6.58184 8.25119C6.70684 8.40119 6.85684 8.27619 6.83184 8.10119C6.78184 7.82619 6.80684 7.65119 6.85684 7.37619C6.85684 7.40119 6.98184 7.40119 7.03184 7.35119C7.00684 7.42619 6.98184 7.52619 7.03184 7.52619C6.98184 7.60119 6.85684 7.72619 6.83184 7.80119C6.80684 7.97619 7.08184 8.30119 6.78184 8.37619C6.58184 8.42619 6.70684 8.57619 6.78184 8.65119C6.78184 8.65119 6.68184 8.97619 6.73184 8.95119C6.53184 9.02619 6.58184 8.85119 6.58184 8.85119C6.68184 8.55119 6.40684 8.52619 6.43184 8.47619C6.18184 8.45119 6.45684 8.70119 6.23184 8.70119C6.18184 8.70119 6.08184 8.75119 6.08184 8.75119C5.80684 8.72619 5.95684 8.47619 6.05684 8.50119C6.13184 8.52619 6.20684 8.65119 6.20684 8.47619C6.20684 8.47619 6.08184 8.27619 6.40684 8.27619C6.28184 8.27619 6.20684 8.17619 6.15684 8.05119C6.10684 8.07619 6.03184 8.20119 5.75684 8.22619C5.75684 8.22619 5.68184 7.95119 5.75684 8.00119C5.85684 8.05119 5.90684 8.05119 6.00684 7.95119C5.95684 7.87619 5.65684 7.77619 5.70684 7.60119C5.70684 7.55119 5.85684 7.47619 5.85684 7.47619C5.83184 7.60119 5.90684 7.72619 6.05684 7.72619C6.25684 7.75119 6.18184 7.67619 6.20684 7.62619C6.23184 7.57619 6.38184 7.65119 6.33184 7.52619C6.33184 7.50119 6.15684 7.47619 6.20684 7.40119C6.30684 7.27619 6.45684 7.37619 6.58184 7.50119ZM5.43184 11.1512L5.38184 11.0262L5.43184 10.8762L5.48184 11.0262L5.43184 11.1512Z" fill="#ED4C5C"/>
<path d="M4.15684 7.575V7.7H4.20684V7.8H4.08184V8.05H4.15684V8.6H4.00684V8.875H5.03184V8.6H4.90684V8.05H4.95684V7.8H4.83184V7.7H4.90684V7.575H4.65684V7.7H4.70684V7.8H4.58184V7.5H4.65684V7.375H4.38184V7.5H4.45684V7.8H4.33184V7.7H4.38184V7.575H4.15684ZM6.98184 10.65V9.4H5.68184V10.65L6.28184 10.925H6.35684L6.98184 10.65ZM6.28184 9.5V9.925L5.85684 9.5H6.28184ZM5.75684 9.525L6.25684 10.025L5.75684 10.525V9.525ZM5.80684 10.625L6.28184 10.15V10.85L5.80684 10.625ZM6.35684 10.825V10.125L6.83184 10.6L6.35684 10.825ZM6.88184 10.525L6.38184 10.025L6.88184 9.525V10.525ZM6.35684 9.5H6.78184L6.35684 9.925V9.5Z" fill="#C8B100"/>
<path d="M4.83203 9.12656C4.83203 8.75156 5.08203 8.47656 5.40703 8.47656C5.73203 8.47656 5.98203 8.77656 5.98203 9.12656C5.98203 9.47656 5.73203 9.77656 5.40703 9.77656C5.08203 9.77656 4.83203 9.50156 4.83203 9.12656Z" fill="#ED4C5C"/>
<path d="M5.00684 9.12344C5.00684 8.84844 5.18184 8.64844 5.40684 8.64844C5.63184 8.64844 5.80684 8.87344 5.80684 9.12344C5.80684 9.39844 5.63184 9.59844 5.40684 9.59844C5.20684 9.62344 5.00684 9.39844 5.00684 9.12344Z" fill="#005BBF"/>
<path d="M5.23184 8.80078L5.13184 9.07578L5.20684 9.10078L5.15684 9.20078H5.30684L5.25684 9.10078L5.33184 9.07578L5.23184 8.80078ZM5.60684 8.80078L5.50684 9.07578L5.58184 9.10078L5.53184 9.20078H5.68184L5.65684 9.10078L5.73184 9.07578L5.60684 8.80078ZM5.43184 9.12578L5.30684 9.40078L5.38184 9.42578L5.35684 9.52578H5.48184L5.45684 9.42578L5.53184 9.40078L5.43184 9.12578Z" fill="#C8B100"/>
</g>
<defs>
<clipPath id="clip0_349_2549">
<rect width="16" height="16" fill="white" transform="translate(0.0322266)"/>
</clipPath>
</defs>
</svg>
