<svg width="49" height="49" viewBox="0 0 49 49" fill="none" xmlns="http://www.w3.org/2000/svg">
<path d="M48.6475 28.4285C46.6075 40.2176 35.7663 49.1786 24.0508 48.6427C12.5394 48.4045 2.39765 38.997 1.14451 27.327C-1.0995 8.95853 17.4354 -5.12295 33.9012 2.67694C37.5732 4.43341 40.808 7.14253 43.1103 10.5661C43.868 11.6974 44.5383 12.8882 45.1212 14.1386C45.296 14.5554 45.1212 15.0317 44.7132 15.2401C44.3052 15.4187 43.8389 15.2401 43.664 14.8531C43.1103 13.7218 42.4692 12.6203 41.7115 11.6081C28.6554 -5.9863 1.72737 4.90973 4.4668 26.8506C5.77823 36.6749 14.4628 44.4153 24.1674 44.3557C31.1909 44.4748 38.0395 40.3963 41.42 34.1444C42.5566 32.0903 43.3143 29.8277 43.6932 27.5056C44.3926 24.1118 49.1721 25.0049 48.6475 28.4285Z" fill="black"/>
</svg>
