<svg width="60" height="60" viewBox="0 0 60 60" fill="none" xmlns="http://www.w3.org/2000/svg">
<path d="M34.9404 5H15.0004C14.536 5.00048 14.0809 5.13031 13.6861 5.37494C13.2914 5.61957 12.9725 5.96933 12.7654 6.385L5.2654 21.385C5.05823 21.7998 4.97049 22.264 5.01199 22.7258C5.05349 23.1876 5.22259 23.6288 5.5004 24L27.9654 53.95C28.2891 54.4039 28.7553 54.7366 29.2898 54.8951C29.8244 55.0537 30.3965 55.029 30.9154 54.825C31.3649 54.6492 31.7539 54.347 32.0354 53.955L54.5004 24C54.7792 23.6283 54.9488 23.1862 54.9904 22.7234C55.0319 22.2606 54.9436 21.7954 54.7354 21.38L47.2354 6.38C47.0276 5.96527 46.7085 5.61653 46.3137 5.37282C45.919 5.1291 45.4643 5.00002 45.0004 5H34.9404ZM33.2004 10L36.5304 20H23.4704L26.8004 10H33.2004ZM41.8004 20L38.4704 10H43.4554L48.4554 20H41.8004ZM36.5304 25L30.0004 44.6L23.4704 25H36.5304ZM37.2454 38.675L41.8004 25H47.5004L37.2454 38.675ZM22.7554 38.675L12.5004 25H18.2004L22.7554 38.675ZM18.2004 20H11.5454L16.5454 10H21.5304L18.2004 20Z" fill="white"/>
</svg>
