<svg width="100" height="100" viewBox="0 0 100 100" fill="none" xmlns="http://www.w3.org/2000/svg">
<path d="M42.1875 9.375H23.4375C20.85 9.375 18.75 11.475 18.75 14.0625V85.9375C18.75 88.525 20.85 90.625 23.4375 90.625H76.5625C79.15 90.625 81.25 88.525 81.25 85.9375V48.4375M42.1875 9.375H43.75C53.6956 9.375 63.2339 13.3259 70.2665 20.3585C77.2991 27.3911 81.25 36.9294 81.25 46.875V48.4375M42.1875 9.375C45.9171 9.375 49.494 10.8566 52.1312 13.4938C54.7684 16.131 56.25 19.7079 56.25 23.4375V29.6875C56.25 32.275 58.35 34.375 60.9375 34.375H67.1875C70.9171 34.375 74.494 35.8566 77.1312 38.4938C79.7684 41.131 81.25 44.7079 81.25 48.4375M37.5 62.5L46.875 71.875L62.5 50" stroke="black" stroke-width="5" stroke-linecap="round" stroke-linejoin="round"/>
</svg>
