<svg width="204" height="84" viewBox="0 0 204 84" fill="none" xmlns="http://www.w3.org/2000/svg">
<path d="M56.3134 45.9025C53.0947 55.6179 41.417 59.193 33.6496 52.6433C26.6537 46.5575 27.1059 35.423 34.7935 30.1832C36.8151 28.846 39.1826 28.0819 41.55 28C41.949 28 42.2948 28.3275 42.3214 28.7368C42.3214 29.1462 42.0288 29.4737 41.6564 29.5283C36.5491 29.9103 32.1334 34.1404 31.4152 39.2982C31.0162 41.9454 31.5482 44.7563 32.958 47.0214L33.357 47.6491C33.5698 47.9493 33.8358 48.2495 34.0487 48.5224C34.2083 48.7135 34.6339 49.1228 34.8201 49.3138C35.1925 49.614 35.5649 49.9688 35.9639 50.2417L36.5757 50.6511L37.2141 51.0058C41.0978 53.0526 45.9391 52.3431 49.1046 49.2593C50.4612 47.9493 51.4188 46.2846 51.8977 44.4834C52.2435 43.2281 53.5203 42.4912 54.7439 42.8187C56.0473 43.2008 56.7656 44.6199 56.3134 45.9025Z" fill="white"/>
<path d="M64.4797 45.5747C62.6177 56.3817 52.7223 64.5962 42.0288 64.1049C31.5216 63.8866 22.2646 55.2628 21.1208 44.565C19.0725 27.7268 35.9905 14.8184 51.0198 21.9685C54.3715 23.5786 57.3242 26.0621 59.4256 29.2005C60.1172 30.2375 60.729 31.3291 61.2611 32.4753C61.4207 32.8574 61.2611 33.294 60.8886 33.4851C60.5162 33.6488 60.0906 33.4851 59.931 33.1303C59.4256 32.0932 58.8404 31.0835 58.1488 30.1556C46.2317 14.027 21.6528 24.0153 24.1532 44.1283C25.3502 53.1342 33.2772 60.2297 42.1352 60.1751C48.546 60.2843 54.7971 56.5455 57.8828 50.8145C58.9202 48.9314 59.6118 46.8574 59.9576 44.7287C60.596 41.6176 64.9585 42.4363 64.4797 45.5747Z" fill="white"/>
<path d="M71.5289 45.4385C68.7891 65.4697 47.9608 77.0681 30.165 68.2533C16.7583 61.7855 10.4008 44.7017 16.2263 30.7289C21.6262 16.7835 37.6664 9.30595 51.4189 14.3547C61.4739 17.766 69.0551 27.536 70.0925 38.3157C70.1723 39.3527 68.7093 39.5165 68.5763 38.5067C67.4058 28.382 60.2237 19.4307 50.7539 16.4015C38.1186 12.0077 23.568 19.0213 18.8597 31.8206C13.8854 44.3196 19.711 59.4112 31.7078 64.9239C40.3796 69.1266 51.0199 67.7075 58.335 61.3215C61.9527 58.2377 64.6394 54.0896 66.0492 49.5048C66.5014 47.9765 66.8472 46.3937 67.0334 44.7835C67.193 43.5009 68.3369 42.6003 69.5605 42.764C70.8373 42.9551 71.7151 44.1559 71.5289 45.4385Z" fill="white"/>
<path d="M103.37 39.7073V51.5513H100.71L100.471 47.7853C98.9809 50.3233 96.4272 51.9334 92.8095 51.9334C86.452 51.9334 81.7969 46.9393 81.7969 40.8535C81.7969 34.0855 86.7712 29.3369 92.9691 29.3369C97.571 29.3369 101.934 31.9295 103.184 37.142H99.5927C98.5021 33.7853 95.5228 32.5572 93.0223 32.5572C88.5534 32.5572 85.2017 35.9139 85.2017 40.8808C85.2017 45.0835 88.2608 48.7131 92.8095 48.7131C96.5602 48.7131 98.9809 46.2843 99.7257 42.9276H92.5701V39.7073H103.37Z" fill="white"/>
<path d="M122.07 45.0018H110.526C110.845 47.2669 112.255 49.0135 114.994 49.0135C116.431 49.0135 117.521 48.5769 118.133 47.5944H121.698C120.767 50.3235 118.16 51.9336 114.968 51.9336C110.339 51.9336 107.2 48.495 107.2 44.0194C107.2 39.571 110.286 36.1051 114.782 36.1051C119.676 36.0778 122.709 39.8985 122.07 45.0018ZM110.605 42.6821H118.851C118.665 40.1987 117.096 38.8888 114.808 38.8888C112.388 38.916 110.978 40.5808 110.605 42.6821Z" fill="white"/>
<path d="M140.026 43.1459V51.5513H136.78V43.3369C136.78 40.5806 135.344 39.1069 132.977 39.1069C131.567 39.1069 130.024 39.8983 128.88 41.372V51.5513H125.635V36.4597H128.88V37.7969C130.157 36.678 131.753 36.0776 133.642 36.0776C137.419 36.0776 140.026 38.7794 140.026 43.1459Z" fill="white"/>
<path d="M158.247 45.0018H146.702C147.021 47.2669 148.431 49.0135 151.171 49.0135C152.608 49.0135 153.698 48.5769 154.31 47.5944H157.875C156.943 50.3235 154.337 51.9336 151.145 51.9336C146.516 51.9336 143.377 48.495 143.377 44.0194C143.377 39.571 146.463 36.1051 150.958 36.1051C155.853 36.0778 158.885 39.8985 158.247 45.0018ZM146.782 42.6821H155.028C154.842 40.1987 153.273 38.8888 150.985 38.8888C148.564 38.916 147.154 40.5808 146.782 42.6821Z" fill="white"/>
<path d="M170.483 36.1597V39.2981C168.142 39.4072 166.36 40.2805 165.03 42.0544V51.5515H161.785V36.4599H165.03V38.5066C166.387 37.0057 168.222 36.1597 170.483 36.1597Z" fill="white"/>
<path d="M187.694 36.4598V51.5514H184.475V50.3506C183.225 51.333 181.629 51.9334 179.74 51.9334C175.617 51.9334 172.292 48.413 172.292 44.0192C172.292 39.6254 175.617 36.105 179.74 36.105C181.629 36.105 183.198 36.6781 184.475 37.6878V36.487H187.694V36.4598ZM184.449 46.7483V41.2902C183.358 39.68 181.815 39.1069 180.193 39.1069C177.506 39.1069 175.538 41.3175 175.538 44.0192C175.538 46.721 177.506 48.9315 180.193 48.9315C181.842 48.9315 183.358 48.3311 184.449 46.7483Z" fill="white"/>
</svg>
