<svg width="34" height="36" viewBox="0 0 34 36" fill="none" xmlns="http://www.w3.org/2000/svg">
<path d="M24.9872 20.2927C23.0837 26.0136 16.1778 28.1187 11.5843 24.262C7.44708 20.6784 7.71451 14.1219 12.2608 11.0365C13.4563 10.2491 14.8564 9.79913 16.2564 9.75092C16.4924 9.75092 16.6969 9.94376 16.7127 10.1848C16.7127 10.4259 16.5396 10.6187 16.3194 10.6508C13.299 10.8758 10.6877 13.3666 10.2629 16.4038C10.027 17.9626 10.3416 19.6178 11.1753 20.9516L11.4113 21.3212C11.5371 21.498 11.6945 21.6747 11.8203 21.8354C11.9147 21.9479 12.1664 22.189 12.2765 22.3015C12.4967 22.4782 12.717 22.6871 12.9529 22.8478L13.3147 23.0889L13.6923 23.2978C15.989 24.503 18.8521 24.0852 20.7241 22.2693C21.5263 21.498 22.0927 20.5177 22.3758 19.4571C22.5803 18.7179 23.3354 18.284 24.059 18.4768C24.8299 18.7018 25.2546 19.5374 24.9872 20.2927Z" fill="black"/>
<path d="M29.8165 20.0999C28.7154 26.4635 22.8634 31.3005 16.5396 31.0113C10.3258 30.8827 4.85141 25.8047 4.17497 19.5053C2.96368 9.59023 12.9686 1.9892 21.8566 6.19949C23.8388 7.14761 25.5849 8.60997 26.8276 10.458C27.2367 11.0686 27.5985 11.7114 27.9131 12.3864C28.0075 12.6114 27.9131 12.8685 27.6929 12.981C27.4726 13.0774 27.2209 12.981 27.1265 12.772C26.8276 12.1614 26.4816 11.5668 26.0726 11.0204C19.0251 1.52318 4.48959 7.40473 5.96831 19.2482C6.67621 24.5512 11.364 28.7294 16.6025 28.6972C20.3937 28.7615 24.0904 26.5599 25.9152 23.1853C26.5288 22.0765 26.9378 20.8552 27.1423 19.6017C27.5198 17.7698 30.0997 18.2519 29.8165 20.0999Z" fill="black"/>
<path d="M33.9853 20.0197C32.365 31.8149 20.0476 38.6446 9.52354 33.454C1.5951 29.6455 -2.16461 19.5858 1.28048 11.358C4.47388 3.14635 13.9597 -1.25678 22.0926 1.71613C28.0389 3.72486 32.5223 9.47785 33.1358 15.8254C33.183 16.4361 32.3178 16.5325 32.2391 15.9379C31.547 9.97602 27.2996 4.70512 21.6993 2.92137C14.2271 0.334127 5.62224 4.46407 2.83785 12.0008C-0.10385 19.3608 3.34124 28.2474 10.4359 31.4935C15.5642 33.9683 21.8567 33.1326 26.1827 29.3723C28.3221 27.5564 29.9109 25.1138 30.7447 22.4141C31.0121 21.5141 31.2166 20.5821 31.3267 19.634C31.4211 18.8787 32.0976 18.3484 32.8212 18.4448C33.5763 18.5573 34.0954 19.2644 33.9853 20.0197Z" fill="black"/>
</svg>
