<svg width="34" height="36" viewBox="0 0 34 36" fill="none" xmlns="http://www.w3.org/2000/svg">
<path d="M24.9868 20.2927C23.0833 26.0136 16.1774 28.1187 11.584 24.262C7.44671 20.6784 7.71414 14.1219 12.2604 11.0365C13.456 10.2491 14.856 9.79913 16.2561 9.75092C16.492 9.75092 16.6966 9.94376 16.7123 10.1848C16.7123 10.4259 16.5392 10.6187 16.319 10.6508C13.2987 10.8758 10.6873 13.3666 10.2626 16.4038C10.0266 17.9626 10.3412 19.6178 11.175 20.9516L11.4109 21.3212C11.5368 21.498 11.6941 21.6747 11.8199 21.8354C11.9143 21.9479 12.166 22.189 12.2761 22.3015C12.4964 22.4782 12.7166 22.6871 12.9526 22.8478L13.3144 23.0889L13.6919 23.2978C15.9887 24.503 18.8517 24.0852 20.7237 22.2693C21.526 21.498 22.0923 20.5177 22.3755 19.4571C22.58 18.7179 23.335 18.284 24.0587 18.4768C24.8295 18.7018 25.2542 19.5374 24.9868 20.2927Z" fill="white"/>
<path d="M29.8169 20.0999C28.7157 26.4635 22.8638 31.3005 16.5399 31.0113C10.3262 30.8827 4.85177 25.8047 4.17534 19.5053C2.96405 9.59023 12.969 1.9892 21.857 6.19949C23.8391 7.14761 25.5853 8.60997 26.828 10.458C27.237 11.0686 27.5988 11.7114 27.9135 12.3864C28.0078 12.6114 27.9135 12.8685 27.6932 12.981C27.473 13.0774 27.2213 12.981 27.1269 12.772C26.828 12.1614 26.4819 11.5668 26.0729 11.0204C19.0254 1.52318 4.48996 7.40473 5.96868 19.2482C6.67657 24.5512 11.3644 28.7294 16.6028 28.6972C20.394 28.7615 24.0908 26.5599 25.9156 23.1853C26.5291 22.0765 26.9381 20.8552 27.1426 19.6017C27.5202 17.7698 30.1001 18.2519 29.8169 20.0999Z" fill="white"/>
<path d="M33.9853 20.0197C32.365 31.8149 20.0476 38.6446 9.52354 33.454C1.5951 29.6455 -2.16461 19.5858 1.28048 11.358C4.47388 3.14635 13.9597 -1.25678 22.0926 1.71613C28.0389 3.72486 32.5223 9.47785 33.1358 15.8254C33.183 16.4361 32.3178 16.5325 32.2391 15.9379C31.547 9.97602 27.2996 4.70512 21.6993 2.92137C14.2271 0.334127 5.62224 4.46407 2.83785 12.0008C-0.10385 19.3608 3.34124 28.2474 10.4359 31.4935C15.5642 33.9683 21.8567 33.1326 26.1827 29.3723C28.3221 27.5564 29.9109 25.1138 30.7447 22.4141C31.0121 21.5141 31.2166 20.5821 31.3267 19.634C31.4211 18.8787 32.0976 18.3484 32.8212 18.4448C33.5763 18.5573 34.0954 19.2644 33.9853 20.0197Z" fill="white"/>
</svg>
