<svg width="46" height="46" viewBox="0 0 46 46" fill="none" xmlns="http://www.w3.org/2000/svg">
<path d="M33.4441 26.0663C30.9039 33.6998 21.6877 36.5088 15.5575 31.3626C10.0362 26.5809 10.3931 17.8324 16.4603 13.7154C18.0558 12.6647 19.9242 12.0643 21.7926 12C22.1075 12 22.3805 12.2573 22.4015 12.5789C22.4015 12.9006 22.1705 13.1579 21.8766 13.2008C17.8458 13.501 14.3609 16.8246 13.7941 20.8772C13.4792 22.9571 13.899 25.1657 15.0117 26.9454L15.3266 27.4386C15.4946 27.6745 15.7045 27.9103 15.8724 28.1248C15.9984 28.2749 16.3343 28.5965 16.4813 28.7466C16.7752 28.9825 17.0691 29.2612 17.384 29.4756L17.8668 29.7973L18.3707 30.076C21.4357 31.6842 25.2566 31.1267 27.7548 28.7037C28.8255 27.6745 29.5813 26.3665 29.9592 24.9513C30.2321 23.9649 31.2398 23.386 32.2055 23.6433C33.2342 23.9435 33.801 25.0585 33.4441 26.0663Z" fill="black"/>
<path d="M39.8894 25.809C38.4198 34.3002 30.6102 40.7544 22.1708 40.3684C13.8783 40.1969 6.5725 33.4211 5.66978 25.0156C4.05327 11.7856 17.4052 1.64328 29.2666 7.26121C31.9118 8.52632 34.2421 10.4776 35.9006 12.9435C36.4464 13.7583 36.9293 14.616 37.3491 15.5166C37.4751 15.8168 37.3491 16.1598 37.0552 16.3099C36.7613 16.4386 36.4254 16.3099 36.2995 16.0312C35.9006 15.2164 35.4387 14.423 34.8929 13.694C25.4877 1.02145 6.08965 8.8694 8.06305 24.6725C9.00776 31.7485 15.2639 37.3236 22.2547 37.2807C27.3142 37.3665 32.2477 34.4289 34.6829 29.9259C35.5017 28.4464 36.0475 26.8168 36.3204 25.1443C36.8243 22.6998 40.2672 23.3431 39.8894 25.809Z" fill="black"/>
<path d="M45.4522 25.7018C43.2899 41.4405 26.8519 50.5536 12.8072 43.6277C2.22638 38.5458 -2.7911 25.1228 1.8065 14.1443C6.06821 3.18714 18.7274 -2.68811 29.5811 1.27875C37.5166 3.95907 43.4998 11.6355 44.3186 20.1053C44.3815 20.9201 43.2269 21.0487 43.1219 20.2554C42.1982 12.3002 36.5299 5.26706 29.0562 2.88694C19.0842 -0.565302 7.60074 4.94542 3.88487 15.002C-0.0409348 24.8226 4.55666 36.6803 14.0248 41.0117C20.8687 44.3138 29.2661 43.1988 35.0394 38.1813C37.8945 35.7583 40.0149 32.499 41.1275 28.8967C41.4844 27.6959 41.7573 26.4522 41.9043 25.1871C42.0303 24.1793 42.933 23.4717 43.8987 23.6004C44.9064 23.7505 45.5992 24.694 45.4522 25.7018Z" fill="black"/>
</svg>
