<svg width="100" height="100" viewBox="0 0 100 100" fill="none" xmlns="http://www.w3.org/2000/svg">
<path d="M50 15.0696L48.3214 16.8742C48.7787 17.2901 49.3772 17.5208 49.9983 17.5208C50.6195 17.5208 51.218 17.2901 51.6753 16.8742L50 15.0696ZM45.3475 31.7097C43.0675 30.0653 40.6322 28.0646 38.795 25.956C36.8983 23.782 35.9565 21.8564 35.9565 20.3297H31C31 23.6545 32.9099 26.7177 35.0412 29.1598C37.232 31.6705 40.001 33.923 42.4264 35.672L45.3475 31.7097ZM35.9565 20.3297C35.9565 16.8677 37.6748 14.8931 39.7433 14.2066C41.8977 13.4874 45.1096 13.9516 48.3214 16.8742L51.6753 13.2651C47.4557 9.42705 42.4132 8.14553 38.1638 9.55781C33.8252 11.0028 31 15.037 31 20.3297H35.9565ZM57.5736 35.672C59.999 33.9262 62.768 31.6705 64.9588 29.1598C67.0901 26.7177 69 23.6545 69 20.3297H64.0435C64.0435 21.8564 63.105 23.782 61.205 25.956C59.3678 28.0646 56.9358 30.0653 54.6558 31.7097L57.5736 35.672ZM69 20.3297C69 15.037 66.1748 11.0028 61.8395 9.55781C57.5901 8.14553 52.5443 9.42705 48.3247 13.2651L51.6786 16.8742C54.8904 13.9516 58.1056 13.4874 60.26 14.2066C62.3252 14.8931 64.0435 16.8677 64.0435 20.3297H69ZM42.4264 35.672C44.9212 37.47 46.9005 39 50 39V34.0962C48.7939 34.0962 48.133 33.7203 45.3475 31.7097L42.4264 35.672ZM54.6525 31.7097C51.867 33.7203 51.2061 34.0962 50 34.0962V39C53.0995 39 55.0788 37.4733 57.5736 35.672L54.6525 31.7097Z" fill="black"/>
<path d="M20.8335 84.9493H30.2502C34.4585 84.9493 38.721 85.391 42.8168 86.2326C50.1298 87.7304 57.653 87.8969 65.0252 86.7243C68.6418 86.141 72.1918 85.2452 75.4085 83.6952C78.3085 82.291 81.8627 80.3202 84.2502 78.1077C86.6335 75.8993 89.1168 72.2868 90.8752 69.4618C92.3918 67.0368 91.6585 64.066 89.2668 62.2618C87.9221 61.2861 86.3033 60.7606 84.6418 60.7606C82.9804 60.7606 81.3615 61.2861 80.0168 62.2618L72.4877 67.9493C69.571 70.1577 66.3835 72.1868 62.5877 72.791C62.1293 72.8632 61.6502 72.9285 61.1502 72.9868M61.1502 72.9868L60.6918 73.0368M61.1502 72.9868C61.8169 72.8061 62.4283 72.4625 62.9293 71.9868C63.5582 71.4443 64.0718 70.7811 64.4398 70.0365C64.8077 69.2919 65.0225 68.4811 65.0715 67.652C65.1204 66.8229 65.0025 65.9924 64.7248 65.2097C64.447 64.4269 64.015 63.7079 63.4543 63.0952C62.9114 62.4924 62.279 61.9766 61.5793 61.566C49.9252 54.6118 31.7877 59.9077 20.8335 67.6785M61.1502 72.9868C60.9997 73.0204 60.846 73.0372 60.6918 73.0368M60.6918 73.0368C58.179 73.2887 55.6475 73.2942 53.1335 73.0535" stroke="black" stroke-width="5" stroke-linecap="round"/>
<path d="M20.8335 64.582C20.8335 61.1303 18.0353 58.332 14.5835 58.332C11.1317 58.332 8.3335 61.1303 8.3335 64.582V85.4154C8.3335 88.8671 11.1317 91.6654 14.5835 91.6654C18.0353 91.6654 20.8335 88.8671 20.8335 85.4154V64.582Z" stroke="black" stroke-width="5"/>
</svg>
