<svg width="60" height="60" viewBox="0 0 60 60" fill="none" xmlns="http://www.w3.org/2000/svg">
<path d="M56.25 3.75V56.25H3.75V3.75H56.25ZM7.5 7.5V37.5H11.8945L15.0879 34.3066C15.459 33.9355 15.8984 33.75 16.4062 33.75C16.9141 33.75 17.3535 33.9355 17.7246 34.3066L22.9102 39.4629L30.0586 11.7188C30.1562 11.3086 30.3711 10.9766 30.7031 10.7227C31.0352 10.4688 31.4258 10.332 31.875 10.3125C32.3242 10.3125 32.7148 10.4395 33.0469 10.6934C33.3789 10.9473 33.5938 11.2988 33.6914 11.748L36.6797 23.9648H41.25C41.6797 23.9648 42.0605 24.0918 42.3926 24.3457C42.7246 24.5996 42.9492 24.9414 43.0664 25.3711L45.1758 33.75H52.5V7.5H7.5ZM52.5 52.5V37.5H43.7109C43.2617 37.5 42.8711 37.373 42.5391 37.1191C42.207 36.8652 41.9922 36.5137 41.8945 36.0645L39.7852 27.7148H35.2148C34.7656 27.7148 34.375 27.5879 34.043 27.334C33.7109 27.0801 33.4961 26.7285 33.3984 26.2793L31.8164 19.8926L25.7227 43.5938C25.625 44.0039 25.4102 44.3359 25.0781 44.5898C24.7461 44.8438 24.3555 44.9805 23.9062 45C23.3984 45 22.959 44.8145 22.5879 44.4434L16.4062 38.2617L13.9746 40.6934C13.6035 41.0645 13.1641 41.25 12.6562 41.25H7.5V52.5H52.5Z" fill="white"/>
</svg>
