<svg width="40" height="40" viewBox="0 0 40 40" fill="none" xmlns="http://www.w3.org/2000/svg">
<path fill-rule="evenodd" clip-rule="evenodd" d="M0.000229716 13.2998H1.42391L1.4239 1.42383L13.3002 1.42383V0.000152841L1.4239 0.00015336V-0.000320435H0.000228554L0.000228554 0.000153422H7.68418e-05L7.6904e-05 1.42383H0.000228678L0.000229716 13.2998ZM0 39.7752H1.42368V39.7751H13.3006V38.3514H1.42368L1.42368 26.4751H0V39.7752ZM39.7772 0H38.3535V0.000152307L26.4766 0.000152826V1.42383L38.3535 1.42383V13.3001H39.7772V0ZM39.7772 26.4756H38.3535L38.3535 38.3516H26.4772V39.7752H38.3535V39.7757H39.7772V39.7752H39.7773V38.3516H39.7772L39.7772 26.4756ZM29.3896 23.8561C28.942 23.8561 28.5743 23.5045 28.5743 23.0409C28.5743 22.5933 28.942 22.2576 29.3896 22.2576C29.8532 22.2576 30.2208 22.5933 30.2208 23.0409C30.2208 23.5045 29.8532 23.8561 29.3896 23.8561ZM24.7694 20.691L26.1121 23.7282H27.4709L22.5634 12.8583H21.3645L16.4571 23.7282H17.8158L19.1586 20.691H24.7694ZM24.2578 19.5561H19.6541L21.956 14.3449L24.2578 19.5561ZM14.5282 23.8561C14.0806 23.8561 13.713 23.5045 13.713 23.0409C13.713 22.5933 14.0806 22.2576 14.5282 22.2576C14.9918 22.2576 15.3594 22.5933 15.3594 23.0409C15.3594 23.5045 14.9918 23.8561 14.5282 23.8561ZM11.6086 12.8584H10.3458V23.7283H11.6086V12.8584Z" fill="white"/>
</svg>
