<svg width="32" height="33" viewBox="0 0 32 33" fill="none" xmlns="http://www.w3.org/2000/svg">
<path fill-rule="evenodd" clip-rule="evenodd" d="M-0.00012207 11.6073H1.14101L1.14101 2.08829L10.6605 2.08829V0.947163L1.14101 0.947163V0.946739H-0.00012207V11.6073ZM-1.345e-05 32.8283H1.14112V32.8281L10.6605 32.8281V31.687H1.14112L1.14112 22.1678H-1.4382e-05L-1.35498e-05 31.687H-0.000113181L-0.000113031 32.8281H-1.34501e-05L-1.345e-05 32.8283ZM31.8815 0.946943H30.7404V0.947016L21.221 0.947016V2.08815L30.7404 2.08815V11.6075H31.8815V2.08815H31.8816V0.947016H31.8815V0.946943ZM31.8816 22.1681H30.7404L30.7404 31.6871H21.221V32.8282L30.7404 32.8282V32.8287H31.8816L31.8816 22.1681ZM23.5569 20.0681C23.1981 20.0681 22.9034 19.7862 22.9034 19.4146C22.9034 19.0559 23.1981 18.7868 23.5569 18.7868C23.9284 18.7868 24.2231 19.0559 24.2231 19.4146C24.2231 19.7862 23.9284 20.0681 23.5569 20.0681ZM19.8531 17.531L20.9294 19.9654H22.0185L18.085 11.2528H17.124L13.1905 19.9654H14.2796L15.3559 17.531H19.8531ZM17.5981 12.4444L19.4431 16.6213H15.7531L17.5981 12.4444ZM11.6451 20.0681C11.2864 20.0681 10.9917 19.7862 10.9917 19.4146C10.9917 19.0559 11.2864 18.7868 11.6451 18.7868C12.0167 18.7868 12.3114 19.0559 12.3114 19.4146C12.3114 19.7862 12.0167 20.0681 11.6451 20.0681ZM9.30468 11.253H8.29247V19.9656H9.30468V11.253Z" fill="white"/>
</svg>
