<svg width="60" height="60" viewBox="0 0 60 60" fill="none" xmlns="http://www.w3.org/2000/svg">
<g clip-path="url(#clip0_285_669)">
<path d="M51 33V42L42 33H24C22.4087 33 20.8826 32.3679 19.7574 31.2426C18.6321 30.1174 18 28.5913 18 27V6C18 2.7 20.7 0 24 0H54C55.5913 0 57.1174 0.632141 58.2426 1.75736C59.3679 2.88258 60 4.4087 60 6V27C60 28.5913 59.3679 30.1174 58.2426 31.2426C57.1174 32.3679 55.5913 33 54 33H51ZM42 39V45C42 46.5913 41.3679 48.1174 40.2426 49.2426C39.1174 50.3679 37.5913 51 36 51H18L9 60V51H6C4.4087 51 2.88258 50.3679 1.75736 49.2426C0.632141 48.1174 0 46.5913 0 45V24C0 20.7 2.7 18 6 18H12V27C12 30.1826 13.2643 33.2348 15.5147 35.4853C17.7652 37.7357 20.8174 39 24 39H42Z" fill="white"/>
</g>
<defs>
<clipPath id="clip0_285_669">
<rect width="60" height="60" fill="white"/>
</clipPath>
</defs>
</svg>
