<svg width="100" height="100" viewBox="0 0 100 100" fill="none" xmlns="http://www.w3.org/2000/svg">
<path d="M50 10C44.6957 10 39.6086 12.1071 35.8579 15.8579C32.1071 19.6086 30 24.6957 30 30C30 35.3043 32.1071 40.3914 35.8579 44.1421C39.6086 47.8929 44.6957 50 50 50C55.3043 50 60.3914 47.8929 64.1421 44.1421C67.8929 40.3914 70 35.3043 70 30C70 24.6957 67.8929 19.6086 64.1421 15.8579C60.3914 12.1071 55.3043 10 50 10ZM35 30C35 26.0218 36.5804 22.2064 39.3934 19.3934C42.2064 16.5804 46.0218 15 50 15C53.9782 15 57.7936 16.5804 60.6066 19.3934C63.4197 22.2064 65 26.0218 65 30C65 33.9782 63.4197 37.7936 60.6066 40.6066C57.7936 43.4197 53.9782 45 50 45C46.0218 45 42.2064 43.4197 39.3934 40.6066C36.5804 37.7936 35 33.9782 35 30ZM25.045 55C23.728 54.9941 22.4228 55.2484 21.2043 55.7482C19.9859 56.2481 18.8782 56.9838 17.9448 57.913C17.0115 58.8422 16.2708 59.9465 15.7655 61.1627C15.2601 62.3789 15 63.683 15 65C15 73.455 19.165 79.83 25.675 83.985C30.915 87.325 37.65 89.225 45 89.8V84.785C38.41 84.215 32.66 82.5 28.365 79.76C23.115 76.415 20 71.55 20 65C20 62.235 22.24 60 25.045 60H83.66C82.7823 58.4798 81.52 57.2175 79.9999 56.3398C78.4797 55.4621 76.7553 55 75 55H25.045ZM95 72.5V87.5C95 89.4891 94.2098 91.3968 92.8033 92.8033C91.3968 94.2098 89.4891 95 87.5 95H57.5C55.5109 95 53.6032 94.2098 52.1967 92.8033C50.7902 91.3968 50 89.4891 50 87.5V72.5C50 70.5109 50.7902 68.6032 52.1967 67.1967C53.6032 65.7902 55.5109 65 57.5 65H87.5C89.4891 65 91.3968 65.7902 92.8033 67.1967C94.2098 68.6032 95 70.5109 95 72.5ZM90 87.5V82.5C88.0109 82.5 86.1032 83.2902 84.6967 84.6967C83.2902 86.1032 82.5 88.0109 82.5 90H87.5C87.5 89.337 87.7634 88.7011 88.2322 88.2322C88.7011 87.7634 89.337 87.5 90 87.5ZM90 72.5C89.337 72.5 88.7011 72.2366 88.2322 71.7678C87.7634 71.2989 87.5 70.663 87.5 70H82.5C82.5 71.9891 83.2902 73.8968 84.6967 75.3033C86.1032 76.7098 88.0109 77.5 90 77.5V72.5ZM57.5 70C57.5 70.663 57.2366 71.2989 56.7678 71.7678C56.2989 72.2366 55.663 72.5 55 72.5V77.5C56.9891 77.5 58.8968 76.7098 60.3033 75.3033C61.7098 73.8968 62.5 71.9891 62.5 70H57.5ZM55 87.5C55.663 87.5 56.2989 87.7634 56.7678 88.2322C57.2366 88.7011 57.5 89.337 57.5 90H62.5C62.5 88.0109 61.7098 86.1032 60.3033 84.6967C58.8968 83.2902 56.9891 82.5 55 82.5V87.5ZM72.5 72.5C70.5109 72.5 68.6032 73.2902 67.1967 74.6967C65.7902 76.1032 65 78.0109 65 80C65 81.9891 65.7902 83.8968 67.1967 85.3033C68.6032 86.7098 70.5109 87.5 72.5 87.5C74.4891 87.5 76.3968 86.7098 77.8033 85.3033C79.2098 83.8968 80 81.9891 80 80C80 78.0109 79.2098 76.1032 77.8033 74.6967C76.3968 73.2902 74.4891 72.5 72.5 72.5Z" fill="white"/>
</svg>
