<svg width="100" height="100" viewBox="0 0 100 100" fill="none" xmlns="http://www.w3.org/2000/svg">
<path d="M20.8335 83.3332L30.8877 73.2791M30.8877 73.2791C32.6072 74.9986 34.6485 76.3626 36.8951 77.2931C39.1418 78.2237 41.5497 78.7027 43.9814 78.7027C46.4131 78.7027 48.8211 78.2237 51.0677 77.2931C53.3143 76.3626 55.3557 74.9986 57.0752 73.2791C58.7947 71.5596 60.1586 69.5182 61.0892 67.2716C62.0198 65.025 62.4988 62.6171 62.4988 60.1853C62.4988 57.7536 62.0198 55.3457 61.0892 53.099C60.1586 50.8524 58.7947 48.8111 57.0752 47.0916C53.6025 43.6189 48.8925 41.668 43.9814 41.668C39.0703 41.668 34.3603 43.6189 30.8877 47.0916C27.415 50.5643 25.4641 55.2742 25.4641 60.1853C25.4641 65.0964 27.415 69.8064 30.8877 73.2791Z" stroke="white" stroke-width="5" stroke-linecap="round" stroke-linejoin="round"/>
<path d="M12.5002 63.2827C9.76306 58.5671 8.32532 53.2101 8.33353 47.7577C8.33353 30.5869 22.3252 16.666 39.5835 16.666H60.4169C77.6752 16.666 91.6669 30.5869 91.6669 47.7577C91.6669 61.2994 82.971 72.816 70.8335 77.0827" stroke="white" stroke-width="5" stroke-linecap="round" stroke-linejoin="round"/>
</svg>
