<svg width="80" height="80" viewBox="0 0 80 80" fill="none" xmlns="http://www.w3.org/2000/svg">
<path fill-rule="evenodd" clip-rule="evenodd" d="M42.2045 5.53276H37.7943L35.2681 15.6299L32.734 16.4133C31.2574 16.8683 29.8267 17.461 28.4609 18.1836L26.1148 19.4252L17.1848 14.0672L14.0672 17.1888L19.4252 26.1188L18.1836 28.4609C17.4597 29.8266 16.8656 31.2572 16.4093 32.734L15.6299 35.2681L5.53276 37.7943V42.2045L15.6299 44.7308L16.4133 47.2648C16.865 48.748 17.4551 50.1723 18.1836 51.5379L19.4252 53.884L14.0672 62.814L17.1888 65.9317L26.1188 60.5737L28.4609 61.8153C29.8265 62.5411 31.2509 63.1326 32.734 63.5895L35.2681 64.3689L37.7943 74.4661H42.2045L44.7308 64.3689L47.2648 63.5856C48.7415 63.1306 50.1721 62.5379 51.5379 61.8153L53.884 60.5737L62.814 65.9317L65.9317 62.8101L60.5737 53.8801L61.8153 51.5379C62.5411 50.1723 63.1326 48.748 63.5895 47.2648L64.3689 44.7308L74.4661 42.2045V37.7943L64.3689 35.2681L63.5856 32.734C63.1306 31.2574 62.5379 29.8267 61.8153 28.4609L60.5737 26.1148L65.9317 17.1848L62.8101 14.0672L53.8801 19.4252L51.5379 18.1836C50.1723 17.4597 48.7416 16.8656 47.2648 16.4093L44.7308 15.6299L42.2045 5.53276ZM53.7391 14.0319L60.9183 9.7236C61.6669 9.2746 62.5441 9.08855 63.4105 9.19499C64.2769 9.30142 65.0829 9.69425 65.7006 10.3111L69.6878 14.2983C70.3046 14.9159 70.6974 15.7219 70.8039 16.5884C70.9103 17.4548 70.7243 18.3319 70.2753 19.0805L65.9669 26.2598C66.8286 27.8787 67.5336 29.5759 68.0819 31.3514L76.2012 33.3842C77.0481 33.5964 77.7999 34.0854 78.3371 34.7738C78.8743 35.4621 79.1661 36.3102 79.1661 37.1833V42.8155C79.1661 43.6886 78.8743 44.5367 78.3371 45.2251C77.7999 45.9134 77.0481 46.4025 76.2012 46.6147L68.0819 48.6474C67.5336 50.423 66.8286 52.1202 65.9669 53.7391L70.2753 60.9183C70.7243 61.6669 70.9103 62.5441 70.8039 63.4105C70.6974 64.2769 70.3046 65.0829 69.6878 65.7006L65.7006 69.6878C65.0829 70.3046 64.2769 70.6974 63.4105 70.8039C62.5441 70.9103 61.6669 70.7243 60.9183 70.2753L53.7391 65.9669C52.1202 66.8286 50.423 67.5336 48.6474 68.0819L46.6147 76.2012C46.4025 77.0481 45.9134 77.7999 45.2251 78.3371C44.5367 78.8743 43.6886 79.1661 42.8155 79.1661H37.1833C36.3102 79.1661 35.4621 78.8743 34.7738 78.3371C34.0854 77.7999 33.5964 77.0481 33.3842 76.2012L31.3514 68.0819C29.5917 67.5381 27.8869 66.83 26.2598 65.9669L19.0805 70.2753C18.3319 70.7243 17.4548 70.9103 16.5884 70.8039C15.7219 70.6974 14.9159 70.3046 14.2983 69.6878L10.3111 65.7006C9.69425 65.0829 9.30142 64.2769 9.19499 63.4105C9.08855 62.5441 9.2746 61.6669 9.7236 60.9183L14.0319 53.7391C13.1689 52.1119 12.4607 50.4072 11.9169 48.6474L3.79768 46.6147C2.95136 46.4027 2.20007 45.9142 1.66295 45.2266C1.12584 44.5391 0.833659 43.6919 0.832764 42.8194V37.1873C0.832787 36.3141 1.12456 35.466 1.66175 34.7777C2.19893 34.0894 2.95071 33.6003 3.79768 33.3881L11.9169 31.3553C12.4653 29.5798 13.1703 27.8826 14.0319 26.2637L9.7236 19.0844C9.2746 18.3358 9.08855 17.4587 9.19499 16.5923C9.30142 15.7259 9.69425 14.9198 10.3111 14.3022L14.2983 10.3111C14.9159 9.69425 15.7219 9.30142 16.5884 9.19499C17.4548 9.08855 18.3319 9.2746 19.0805 9.7236L26.2598 14.0319C27.8787 13.1703 29.5759 12.4653 31.3514 11.9169L33.3842 3.79768C33.5962 2.95136 34.0847 2.20007 34.7722 1.66295C35.4598 1.12584 36.307 0.833659 37.1794 0.832764H42.8116C43.6847 0.832787 44.5328 1.12456 45.2212 1.66175C45.9095 2.19893 46.3986 2.95071 46.6108 3.79768L48.6435 11.9169C50.4191 12.4653 52.1163 13.1703 53.7352 14.0319H53.7391ZM39.9994 50.9661C42.908 50.9661 45.6974 49.8107 47.754 47.754C49.8107 45.6974 50.9661 42.908 50.9661 39.9994C50.9661 37.0909 49.8107 34.3015 47.754 32.2448C45.6974 30.1882 42.908 29.0328 39.9994 29.0328C37.0909 29.0328 34.3015 30.1882 32.2448 32.2448C30.1882 34.3015 29.0328 37.0909 29.0328 39.9994C29.0328 42.908 30.1882 45.6974 32.2448 47.754C34.3015 49.8107 37.0909 50.9661 39.9994 50.9661ZM39.9994 55.6661C35.8444 55.6661 31.8595 54.0155 28.9214 51.0774C25.9834 48.1394 24.3328 44.1545 24.3328 39.9994C24.3328 35.8444 25.9834 31.8595 28.9214 28.9214C31.8595 25.9834 35.8444 24.3328 39.9994 24.3328C44.1545 24.3328 48.1394 25.9834 51.0774 28.9214C54.0155 31.8595 55.6661 35.8444 55.6661 39.9994C55.6661 44.1545 54.0155 48.1394 51.0774 51.0774C48.1394 54.0155 44.1545 55.6661 39.9994 55.6661Z" fill="white"/>
</svg>
