<svg width="100" height="100" viewBox="0 0 100 100" fill="none" xmlns="http://www.w3.org/2000/svg">
<path d="M25 34.3746C25 27.7442 27.6339 21.3853 32.3223 16.6969C37.0107 12.0085 43.3696 9.37457 50 9.37457C56.6304 9.37457 62.9893 12.0085 67.6777 16.6969C72.3661 21.3853 75 27.7442 75 34.3746C75 34.789 75.1646 35.1864 75.4576 35.4794C75.7507 35.7725 76.1481 35.9371 76.5625 35.9371C76.9769 35.9371 77.3743 35.7725 77.6674 35.4794C77.9604 35.1864 78.125 34.789 78.125 34.3746C78.1242 29.0568 76.6157 23.8481 73.7746 19.3529C70.9335 14.8576 66.8762 11.2599 62.0733 8.97714C57.2704 6.69434 51.9187 5.81998 46.639 6.45547C41.3593 7.09096 36.3679 9.21026 32.2439 12.5675C28.1198 15.9248 25.0321 20.3825 23.3388 25.4236C21.6456 30.4646 21.4162 35.8824 22.6773 41.0485C23.9383 46.2146 26.6382 50.9174 30.4637 54.6113C34.2892 58.3052 39.0835 60.8388 44.2906 61.9183C44.906 63.2983 46.0004 64.4086 47.3713 65.0438C48.7423 65.679 50.2969 65.7961 51.7475 65.3734C53.1981 64.9506 54.4464 64.0167 55.2615 62.7444C56.0766 61.4722 56.4031 59.9477 56.1808 58.4532C55.9585 56.9588 55.2022 55.5954 54.0521 54.6155C52.902 53.6356 51.4358 53.1056 49.925 53.1234C48.4142 53.1413 46.9609 53.7058 45.8343 54.7126C44.7076 55.7194 43.9838 57.1002 43.7969 58.5996C38.4186 57.222 33.652 54.0934 30.2485 49.7071C26.8451 45.3208 24.9985 39.9264 25 34.3746ZM50 18.7496C45.856 18.7496 41.8817 20.3958 38.9515 23.326C36.0212 26.2563 34.375 30.2306 34.375 34.3746C34.375 38.5186 36.0212 42.4929 38.9515 45.4231C41.8817 48.3534 45.856 49.9996 50 49.9996C47.7281 49.9996 45.6469 50.8089 44.0219 52.1527C39.806 50.7349 36.2314 47.8646 33.9366 44.0544C31.6418 40.2442 30.7762 35.7422 31.4946 31.3527C32.2129 26.9632 34.4683 22.972 37.8579 20.0919C41.2475 17.2119 45.5505 15.6307 49.9984 15.6307C54.4463 15.6307 58.7494 17.2119 62.139 20.0919C65.5286 22.972 67.784 26.9632 68.5023 31.3527C69.2206 35.7422 68.3551 40.2442 66.0603 44.0544C63.7655 47.8646 60.1909 50.7349 55.975 52.1527C54.2945 50.7617 52.1815 50.0002 50 49.9996C54.144 49.9996 58.1183 48.3534 61.0485 45.4231C63.9788 42.4929 65.625 38.5186 65.625 34.3746C65.625 30.2306 63.9788 26.2563 61.0485 23.326C58.1183 20.3958 54.144 18.7496 50 18.7496ZM76.5625 59.3746H59.375C59.375 58.2808 59.1875 57.2277 58.8437 56.2496H76.5625C79.4633 56.2496 82.2453 57.4019 84.2965 59.4531C86.3477 61.5043 87.5 64.2863 87.5 67.1871V69.2714C87.5 75.9902 78.8563 93.7496 50 93.7496C21.1437 93.7496 12.5 75.9871 12.5 69.2714V67.1871C12.5 64.2863 13.6523 61.5043 15.7035 59.4531C17.7547 57.4019 20.5367 56.2496 23.4375 56.2496H27.6844C28.7927 57.3808 29.9802 58.4225 31.2469 59.3746H23.4375C21.3655 59.3746 19.3784 60.1977 17.9132 61.6628C16.4481 63.1279 15.625 65.1151 15.625 67.1871V69.2714C15.625 74.0121 22.6063 90.6246 50 90.6246C77.3937 90.6246 84.375 74.0121 84.375 69.2714V67.1871C84.375 65.1151 83.5519 63.1279 82.0868 61.6628C80.6216 60.1977 78.6345 59.3746 76.5625 59.3746Z" fill="white"/>
</svg>
