<svg width="143" height="177" viewBox="0 0 143 177" fill="none" xmlns="http://www.w3.org/2000/svg">
<path fill-rule="evenodd" clip-rule="evenodd" d="M142.478 83.5C107.09 83.5 76.627 47.211 76.627 0H66.627L66.3733 2.60452e-05C66.3733 47.211 35.9103 83.5 0.522462 83.5L0.522461 93.5C0.522518 93.5 0.522576 93.5 0.522634 93.5C35.9104 93.5 66.3734 129.789 66.3734 177L66.6272 177L76.3734 177L76.6272 177C76.6272 129.789 107.09 93.5 142.478 93.5V83.5L142.478 83.5ZM25.1804 88.5C46.7612 79.4147 63.6204 58.734 71.5001 32.9811C79.3799 58.734 96.2392 79.4148 117.82 88.5C96.2393 97.5853 79.3801 118.266 71.5003 144.019C63.6205 118.266 46.7613 97.5852 25.1804 88.5Z" fill="white"/>
</svg>
