<svg width="40" height="40" viewBox="0 0 40 40" fill="none" xmlns="http://www.w3.org/2000/svg">
<path fill-rule="evenodd" clip-rule="evenodd" d="M26.4759 -0.00180054V1.42188L38.3519 1.42187V13.3001H39.7756V1.42187H39.776V-0.00180054H26.4759ZM39.7765 26.4766H38.3529L38.3529 38.3516H26.4756V39.7752H38.3529V39.7767H39.7765L39.7765 26.4766ZM0.000474198 13.3281H1.42415L1.42415 1.45313L13.3004 1.45312V0.0294494L1.42415 0.02945V0.0279993H0.000473035L0.000473036 0.02945H0.000321326L0.000321388 1.45313H0.00047316L0.000474198 13.3281ZM0.000474198 39.8047H1.42415V39.8026L13.3001 39.8026V38.3789L1.42415 38.3789L1.42415 26.5046H0.000473035L0.000474074 38.3789H0V39.8026H0.000474198L0.000474198 39.8047ZM29.3898 23.8563C28.9422 23.8563 28.5745 23.5047 28.5745 23.0411C28.5745 22.5935 28.9422 22.2578 29.3898 22.2578C29.8533 22.2578 30.221 22.5935 30.221 23.0411C30.221 23.5047 29.8533 23.8563 29.3898 23.8563ZM24.7696 20.6921L26.1124 23.7293H27.4711L22.5637 12.8594H21.3648L16.4574 23.7293H17.8161L19.1588 20.6921H24.7696ZM24.2581 19.5571H19.6544L21.9562 14.346L24.2581 19.5571ZM14.5285 23.8563C14.0809 23.8563 13.7132 23.5047 13.7132 23.0411C13.7132 22.5935 14.0809 22.2578 14.5285 22.2578C14.992 22.2578 15.3597 22.5935 15.3597 23.0411C15.3597 23.5047 14.992 23.8563 14.5285 23.8563ZM11.6088 12.8594H10.346V23.7293H11.6088V12.8594Z" fill="white"/>
</svg>
