<svg width="40" height="40" viewBox="0 0 40 40" fill="none" xmlns="http://www.w3.org/2000/svg">
<path fill-rule="evenodd" clip-rule="evenodd" d="M3.07397e-05 13.3001H1.42371L1.4237 1.42415L13.3002 1.42415V0.000473259L1.4237 0.000473778V0H2.95769e-05L3.07397e-05 13.3001ZM0.00010763 39.7755H1.42378V39.7754H13.3001V38.3517H1.42378L1.42378 26.4754H0.000106467L0.000107505 38.3517H0V39.7754H0.00010763L0.00010763 39.7755ZM39.7755 0H38.3518V0.000152291L26.4755 0.00015281V1.42383L38.3518 1.42383V13.3001H39.7755V1.42383H39.7756V0.000152229H39.7755V0ZM39.7757 26.4756H38.352V38.3516H26.4755V39.7752H38.352V39.7757H39.7757V26.4756ZM29.3896 23.8561C28.9421 23.8561 28.5744 23.5045 28.5744 23.0409C28.5744 22.5933 28.9421 22.2576 29.3896 22.2576C29.8532 22.2576 30.2209 22.5933 30.2209 23.0409C30.2209 23.5045 29.8532 23.8561 29.3896 23.8561ZM24.769 20.691L26.1117 23.7282H27.4704L22.563 12.8583H21.3641L16.4567 23.7282H17.8154L19.1582 20.691H24.769ZM21.9556 14.3449L24.2574 19.5561H19.6537L21.9556 14.3449ZM14.5286 23.8561C14.081 23.8561 13.7134 23.5045 13.7134 23.0409C13.7134 22.5933 14.081 22.2576 14.5286 22.2576C14.9922 22.2576 15.3599 22.5933 15.3599 23.0409C15.3599 23.5045 14.9922 23.8561 14.5286 23.8561ZM11.6087 12.8584H10.3458V23.7283H11.6087V12.8584Z" fill="black"/>
</svg>
