<svg width="275" height="178" viewBox="0 0 275 178" fill="none" xmlns="http://www.w3.org/2000/svg">
<path d="M0.666666 156C0.666666 167.782 10.2179 177.333 22 177.333C33.7821 177.333 43.3333 167.782 43.3333 156C43.3333 144.218 33.7821 134.667 22 134.667C10.2179 134.667 0.666666 144.218 0.666666 156ZM180.489 97.4523L181.149 101.397L180.489 97.4523ZM231.667 22C231.667 33.7821 241.218 43.3333 253 43.3333C264.782 43.3333 274.333 33.7821 274.333 22C274.333 10.2179 264.782 0.666666 253 0.666666C241.218 0.666666 231.667 10.2179 231.667 22ZM25.2521 158.329C27.4631 155.241 29.6588 152.344 31.8416 149.625L25.6028 144.617C23.3232 147.457 21.0392 150.471 18.7479 153.671L25.2521 158.329ZM46.4509 133.787C52.1428 128.511 57.7846 124.295 63.4232 120.906L59.3019 114.05C53.1642 117.739 47.0844 122.292 41.0129 127.919L46.4509 133.787ZM82.7297 112.207C89.5256 110.05 96.4739 108.672 103.686 107.739L102.66 99.8049C95.1043 100.782 87.6693 102.246 80.3092 104.582L82.7297 112.207ZM125.47 105.973C132.509 105.622 140.001 105.355 147.642 104.919L147.186 96.9319C139.539 97.3683 132.308 97.6216 125.071 97.9829L125.47 105.973ZM169.988 103.004C173.637 102.56 177.356 102.032 181.149 101.397L179.828 93.5072C176.163 94.1208 172.563 94.6318 169.023 95.0624L169.988 103.004ZM181.149 101.397C184.446 100.845 187.617 100.153 190.666 99.3321L188.586 91.607C185.791 92.3594 182.873 92.9974 179.828 93.5072L181.149 101.397ZM208.879 92.2895C214.954 89.1363 220.344 85.4259 225.107 81.3573L219.911 75.2744C215.59 78.9651 210.704 82.3287 205.194 85.1891L208.879 92.2895ZM238.468 67.1113C242.586 61.6451 245.912 55.9827 248.554 50.4532L241.335 47.0044C238.902 52.0979 235.846 57.296 232.078 62.2975L238.468 67.1113ZM255.181 32.1538C256.06 28.6378 256.648 25.3607 256.975 22.4467L249.025 21.5533C248.741 24.084 248.221 27.0108 247.42 30.2138L255.181 32.1538Z" fill="white"/>
</svg>
